<svg width="101" height="93" fill="none" xmlns="http://www.w3.org/2000/svg"><path d="M61.5 76H1V1h99v75H89.248" stroke="#EA5297" stroke-miterlimit="10"/><path d="M59.734 67H13V10h75v50" stroke="#EA5297" stroke-miterlimit="10"/><path d="M63 18H39v10h24V18zM87 79v13l-11.5-4.037L64 92V79M32 38h37M32 48h37" stroke="#EA5297" stroke-miterlimit="10"/><path d="M75.5 84C84.06 84 91 77.284 91 69c0-8.284-6.94-15-15.5-15C66.94 54 60 60.716 60 69c0 8.284 6.94 15 15.5 15z" stroke="#EA5297" stroke-miterlimit="10"/></svg>