<svg width="96" height="97" fill="none" xmlns="http://www.w3.org/2000/svg"><path d="M95 21.148v43.706a8.14 8.14 0 01-2.39 5.76A8.165 8.165 0 0186.841 73H9.161a8.168 8.168 0 01-5.77-2.385A8.146 8.146 0 011 64.854V21.148a8.136 8.136 0 012.39-5.762A8.16 8.16 0 019.16 13H61.6M1 61h94" stroke="#EA5297" stroke-miterlimit="10"/><path d="M60 89H37l3.593-16h15.816L60 89zM70 89H26v7h44v-7zM62 1h33v18.335c0 2.682-.658 5.321-1.916 7.68a16.047 16.047 0 01-5.287 5.828L78.501 39l-9.298-6.163a16.047 16.047 0 01-5.286-5.826A16.324 16.324 0 0162 19.335V1z" stroke="#EA5297" stroke-miterlimit="10"/><path d="M72 18.329L76.459 23 86 13M81 37.845V61H16V20h46.19" stroke="#EA5297" stroke-miterlimit="10"/></svg>