<svg width="76" height="84" fill="none" xmlns="http://www.w3.org/2000/svg"><path d="M1.094 19.378v21.173l18.453 10.584 18.454-10.584V19.378L19.547 8.792 1.094 19.378z" stroke="#EA5297" stroke-miterlimit="10"/><path d="M30.513 23.674L19.547 17.38 8.58 23.674M19.547 51.135v21.17l18.454 10.587 18.452-10.586M38.001 19.378v21.173l18.452 10.584 18.453-10.584V19.378L56.453 8.792" stroke="#EA5297" stroke-miterlimit="10"/><path d="M51.38 12.079c3.054 0 5.528-2.46 5.528-5.493 0-3.034-2.474-5.493-5.528-5.493-3.053 0-5.528 2.46-5.528 5.493 0 3.033 2.476 5.493 5.529 5.493zM61.383 75.38c3.053 0 5.529-2.46 5.529-5.493 0-3.034-2.476-5.493-5.529-5.493s-5.528 2.46-5.528 5.493c0 3.033 2.475 5.492 5.529 5.492z" stroke="#EA5297" stroke-miterlimit="10"/></svg>