<svg width="92" height="103" fill="none" xmlns="http://www.w3.org/2000/svg"><path d="M12.257 58.864l-.026-29.23a5.538 5.538 0 00-1.63-3.918 5.559 5.559 0 00-3.926-1.621v0a5.558 5.558 0 00-3.927 1.624 5.538 5.538 0 00-1.626 3.92v26.238c0 3.08.759 6.113 2.209 8.832l15.96 29.905v7.255h23.417V91.531a31.888 31.888 0 00-9.255-22.47L20.127 55.645a4.59 4.59 0 00-3.261-1.357 4.597 4.597 0 00-3.262 1.358v0a4.582 4.582 0 00-.979 5.004 4.58 4.58 0 001.004 1.485l11.934 11.74M79.74 58.864l.03-29.23a5.538 5.538 0 011.628-3.917 5.559 5.559 0 013.925-1.622v0a5.564 5.564 0 013.928 1.623 5.541 5.541 0 011.627 3.92v26.238c0 3.08-.759 6.114-2.209 8.833L72.71 94.614v7.255h-23.42V91.531a31.89 31.89 0 019.256-22.47l13.323-13.416a4.594 4.594 0 015.03-1.004c.56.233 1.068.574 1.495 1.005v0a4.583 4.583 0 01-.027 6.489l-11.934 11.74M46.018 1.172a28.053 28.053 0 016.093 9.102 28.014 28.014 0 01-6.093 30.576 28.031 28.031 0 01-8.233-19.839 28.03 28.03 0 018.233-19.84zM46.018 40.85V21.013" stroke="#EA5297" stroke-miterlimit="10"/><path d="M48.001 54.372a28.03 28.03 0 018.233-19.84 28.133 28.133 0 0119.875-8.217 28.031 28.031 0 01-8.233 19.839 28.134 28.134 0 01-19.875 8.218zM47.999 54.37l14.054-14.03M15.891 26.312a28.133 28.133 0 0119.875 8.218A28.031 28.031 0 0144 54.37a28.133 28.133 0 01-19.875-8.218 28.031 28.031 0 01-8.233-19.84zM43.999 54.37L29.945 40.34" stroke="#EA5297" stroke-miterlimit="10"/></svg>