<svg width="95" height="93" fill="none" xmlns="http://www.w3.org/2000/svg"><path d="M94 80H1v12h93V80zM80.666 61.69H56.92v6.034h23.746V61.69zM30.57 26.21l-7.043-7.096L38.48 4.052l30.062 30.281-14.953 15.062-16.202-16.32M71.374 43.576l-6.003-6.047-8.61 8.672 6.003 6.047 8.61-8.672zM71.95 67.724h-6.314V79.79h6.313V67.724zM35.257 79.79H4.335l9.628-12.066H25.63l9.627 12.066z" stroke="#EA5297" stroke-miterlimit="10"/><path d="M25.63 67.724s.44-25.843 18.409-42.122l-5.877-6.488s-22.628 15.72-24.197 48.61M35.308 7.25l-6.003-6.046-8.609 8.672 6.003 6.047 8.61-8.672z" stroke="#EA5297" stroke-miterlimit="10"/><path d="M30.57 26.21l-2.378-2.397L43.145 8.75l20.732 20.884-14.953 15.061-11.536-11.62" stroke="#EA5297" stroke-miterlimit="10"/></svg>