<svg width="90" height="88" fill="none" xmlns="http://www.w3.org/2000/svg"><path d="M46.535 72.614v7.971a6.224 6.224 0 01-3.848 5.754 6.234 6.234 0 01-2.385.474H7.23A6.232 6.232 0 011 80.585V7.227a6.224 6.224 0 013.846-5.753A6.233 6.233 0 017.23 1h33.072a6.233 6.233 0 015.758 3.843c.314.756.475 1.566.475 2.384v33.67M46.535 61.92v2.197" stroke="#EA5297" stroke-miterlimit="10"/><path d="M89.697 31.157h-7.263L74.708 61.92H39.429L28.935 40.489H80.09M44.282 73.22a4.703 4.703 0 004.699-4.708c0-2.6-2.104-4.709-4.699-4.709a4.703 4.703 0 00-4.697 4.709c0 2.6 2.103 4.709 4.697 4.709zM69.339 73.22a4.703 4.703 0 004.698-4.708c0-2.6-2.104-4.709-4.698-4.709a4.703 4.703 0 00-4.698 4.709c0 2.6 2.103 4.709 4.698 4.709zM43.343 63.803V61.92" stroke="#EA5297" stroke-miterlimit="10"/><path d="M43.343 40.381V8.803a5.277 5.277 0 00-1.544-3.732 5.251 5.251 0 00-3.725-1.537H33.36v1.129c0 .687-.273 1.346-.757 1.832a2.581 2.581 0 01-1.828.76H16.746a2.581 2.581 0 01-1.827-.76 2.595 2.595 0 01-.757-1.832v-1.13H9.447a5.24 5.24 0 00-3.716 1.543 5.267 5.267 0 00-1.539 3.727v69.18a5.279 5.279 0 001.534 3.735 5.251 5.251 0 003.721 1.547h28.621a5.24 5.24 0 003.73-1.542 5.267 5.267 0 001.54-3.74v-4.864" stroke="#EA5297" stroke-miterlimit="10"/></svg>