<svg width="307" height="51" fill="none" xmlns="http://www.w3.org/2000/svg"><path d="M45.395.678h5.097L29.95 50.032H23.04L0 .678h7.647l18.852 45.829L45.395.678zM58.623.678h4.936v49.354h-4.936V.678zM114.001 5.19H95.386v44.842H90.45V5.19H71.835V.678h42.166V5.19zM131.137.678h6.916l21.079 49.354h-5.216l-5.574-13.253h-27.493l-5.574 13.253h-5.216L131.137.678zm15.293 31.589L134.587 4.23l-11.835 28.062 23.678-.025zM172.471.678v44.843h30.884v4.511h-35.829V.678h4.945zM209.183.678h4.919v49.354h-4.936l.017-49.354zM235.071 6.6a6.986 6.986 0 00-2.965 6.058 7.645 7.645 0 003.169 6.457c2.118 1.575 5.502 2.784 10.153 3.628 5.879 1.133 10.11 2.767 12.693 4.902a10.69 10.69 0 013.882 8.709 12.65 12.65 0 01-5.097 10.331c-3.399 2.702-7.63 4.053-12.693 4.053a21.402 21.402 0 01-12.583-3.773c-3.591-2.514-6.188-6.264-7.791-11.248l4.299-2.677c2.492 8.791 7.873 13.186 16.143 13.186 3.896 0 6.998-.87 9.303-2.608a8.495 8.495 0 003.458-7.196 6.96 6.96 0 00-2.999-5.947c-2-1.45-5.444-2.603-10.332-3.458-5.165-.844-9.218-2.487-12.158-4.928a11.587 11.587 0 01-4.409-9.346 11.437 11.437 0 014.409-9.167c2.951-2.407 6.777-3.597 11.479-3.569a18.613 18.613 0 0110.611 2.991 16.25 16.25 0 016.381 8.428l-4.367 2.473c-1.971-6.23-6.296-9.346-12.974-9.346-2.69-.14-5.355.578-7.612 2.047zM280.058 6.6a6.986 6.986 0 00-2.966 6.058 7.648 7.648 0 003.178 6.457c2.118 1.575 5.503 2.784 10.153 3.628 5.873 1.133 10.105 2.767 12.693 4.902a10.699 10.699 0 013.874 8.709 12.65 12.65 0 01-5.097 10.33c-3.399 2.703-7.627 4.054-12.685 4.054a21.425 21.425 0 01-12.591-3.773c-3.597-2.515-6.194-6.264-7.791-11.249l4.307-2.676c2.487 8.79 7.868 13.186 16.143 13.186 3.897 0 6.998-.87 9.303-2.608a8.496 8.496 0 003.458-7.196 6.94 6.94 0 00-2.999-5.948c-2-1.45-5.44-2.602-10.323-3.458-5.171-.843-9.227-2.486-12.166-4.927a11.585 11.585 0 01-4.41-9.346 11.45 11.45 0 014.41-9.167c2.951-2.408 6.774-3.597 11.469-3.569a18.695 18.695 0 0110.621 2.957 16.351 16.351 0 016.372 8.428l-4.376 2.472c-1.971-6.23-6.295-9.345-12.973-9.345a12.744 12.744 0 00-7.604 2.081z" fill="#fff"/></svg>