<svg width="308" height="59" fill="none" xmlns="http://www.w3.org/2000/svg"><path d="M48.795 1.026h5.782L31.22 57.328h-7.862L0 1.026h5.782L27.29 53.298 48.795 1.026zM61.982 1.026h5.6v56.302h-5.6V1.026zM123.942 6.178H102.71v51.15h-5.622V6.178H75.9V1.026h47.996l.045 5.152zM141.38 1.026h7.862l23.998 56.302h-5.943l-6.331-15.111h-31.311l-6.353 15.111h-5.943L141.38 1.026zm17.415 36.039L145.311 5.01l-13.485 32.055h26.969zM186.405 1.027V52.13h35.151v5.151H180.76V.981l5.645.046zM238.193 28.937l18.284-27.91h6.331l-21.804 32.787v23.492h-5.622V33.814l-21.826-32.81h6.331l18.306 27.933zM276.887 7.781a8.014 8.014 0 00-3.36 6.869 8.699 8.699 0 00.88 4.141 8.67 8.67 0 002.731 3.232 28.352 28.352 0 0011.565 4.144 32.624 32.624 0 0114.444 5.586 12.178 12.178 0 014.411 9.937 14.383 14.383 0 01-5.782 11.769 22.302 22.302 0 01-14.444 4.58 24.215 24.215 0 01-14.33-4.305 23.854 23.854 0 01-8.868-12.822l4.891-3.045c2.834 10.013 8.928 15.02 18.284 15.02a17.116 17.116 0 0010.604-2.977 9.658 9.658 0 003.931-8.197 7.983 7.983 0 00-.823-3.872 7.96 7.96 0 00-2.582-2.997 29.337 29.337 0 00-11.77-3.938 28.493 28.493 0 01-13.85-5.632 13.222 13.222 0 01-3.744-4.725 13.263 13.263 0 01-1.262-5.899 13.1 13.1 0 011.286-5.806 13.068 13.068 0 013.72-4.635 19.722 19.722 0 0113.05-4.19 21.296 21.296 0 0112.09 3.412 18.745 18.745 0 017.268 9.616l-4.982 2.816a14.124 14.124 0 00-5.428-8.055 14.082 14.082 0 00-9.337-2.637 14.654 14.654 0 00-8.593 2.61z" fill="#020051"/></svg>