<svg width="169" height="28" fill="none" xmlns="http://www.w3.org/2000/svg"><path d="M24.99.374h2.806l-11.31 27.168h-3.802L0 .374h4.21L14.587 25.6 24.989.374zM32.272.374h2.717v27.168h-2.717V.374zM62.757 2.857H52.509v24.685h-2.717V2.857H39.544V.374h23.213v2.483zM72.19.374h3.807L87.6 27.542H84.73l-3.068-7.296H66.526l-3.068 7.296h-2.872L72.19.374zm8.418 17.389l-6.52-15.434-6.515 15.448 13.035-.014zM94.943.374v24.685h17.001v2.483H92.221V.374h2.722zM115.153.374h2.708v27.168h-2.717l.009-27.168zM129.404 3.633a3.847 3.847 0 00-1.633 3.335 4.206 4.206 0 001.745 3.554c1.166.867 3.029 1.533 5.589 1.998 3.237.623 5.566 1.523 6.987 2.698a5.885 5.885 0 012.138 4.794 6.96 6.96 0 01-2.806 5.688c-1.871 1.487-4.2 2.23-6.988 2.23a11.78 11.78 0 01-6.926-2.076c-1.977-1.385-3.407-3.449-4.289-6.193l2.366-1.473c1.372 4.84 4.334 7.259 8.887 7.259 2.145 0 3.852-.479 5.121-1.436a4.674 4.674 0 001.903-3.961 3.834 3.834 0 00-1.65-3.274c-1.101-.799-2.997-1.433-5.688-1.904-2.843-.464-5.074-1.369-6.693-2.713a6.376 6.376 0 01-2.427-5.144 6.3 6.3 0 012.427-5.047c1.625-1.325 3.731-1.98 6.319-1.964a10.25 10.25 0 015.842 1.646 8.946 8.946 0 013.512 4.64l-2.404 1.36c-1.085-3.429-3.466-5.144-7.142-5.144a7.012 7.012 0 00-4.19 1.127zM154.168 3.633a3.844 3.844 0 00-1.632 3.335 4.216 4.216 0 001.749 3.555c1.166.866 3.029 1.532 5.589 1.997 3.234.623 5.563 1.523 6.988 2.698a5.9 5.9 0 012.133 4.794 6.974 6.974 0 01-2.807 5.688c-1.871 1.487-4.198 2.23-6.982 2.23a11.798 11.798 0 01-6.932-2.076c-1.98-1.384-3.409-3.449-4.289-6.192l2.372-1.474c1.368 4.84 4.331 7.259 8.886 7.259 2.145 0 3.852-.479 5.121-1.436a4.673 4.673 0 001.904-3.961 3.83 3.83 0 00-.407-1.848 3.831 3.831 0 00-1.244-1.426c-1.101-.798-2.995-1.433-5.683-1.904-2.846-.464-5.079-1.369-6.697-2.712a6.378 6.378 0 01-2.428-5.145 6.3 6.3 0 012.428-5.047c1.624-1.325 3.729-1.98 6.314-1.964a10.29 10.29 0 015.846 1.628 9 9 0 013.508 4.64l-2.409 1.36c-1.085-3.43-3.466-5.145-7.142-5.145a7.016 7.016 0 00-4.186 1.146z" fill="#fff"/></svg>