<svg width="90" height="88" viewBox="0 0 90 88" fill="none" xmlns="http://www.w3.org/2000/svg">
<path d="M46.5351 72.6138V80.5853C46.5351 81.4033 46.3738 82.2133 46.0605 82.969C45.7473 83.7247 45.2881 84.4113 44.7092 84.9895C44.1304 85.5678 43.4432 86.0265 42.687 86.3392C41.9308 86.652 41.1203 86.8128 40.3019 86.8125H7.23039C5.57798 86.8125 3.99327 86.1564 2.82484 84.9886C1.65641 83.8207 1 82.2368 1 80.5853V7.22716C1 6.4094 1.16114 5.59965 1.47425 4.84413C1.78736 4.08862 2.24629 3.40214 2.82484 2.8239C3.40339 2.24565 4.09021 1.78696 4.84612 1.47402C5.60203 1.16107 6.4122 1 7.23039 1L40.3019 1C41.1203 0.999635 41.9308 1.16044 42.687 1.47322C43.4432 1.786 44.1304 2.24463 44.7092 2.82291C45.2881 3.4012 45.7473 4.08779 46.0605 4.84349C46.3738 5.59919 46.5351 6.40917 46.5351 7.22716V40.8968" stroke="#EA5297" stroke-miterlimit="10"/>
<path d="M46.5352 61.9199V64.1173" stroke="#EA5297" stroke-miterlimit="10"/>
<path d="M89.6967 31.1572H82.4343L74.7079 61.9198H39.4291L28.9355 40.4887H80.0894" stroke="#EA5297" stroke-miterlimit="10"/>
<path d="M44.2825 73.2205C46.8772 73.2205 48.9805 71.1124 48.9805 68.5119C48.9805 65.9114 46.8772 63.8033 44.2825 63.8033C41.6879 63.8033 39.5845 65.9114 39.5845 68.5119C39.5845 71.1124 41.6879 73.2205 44.2825 73.2205Z" stroke="#EA5297" stroke-miterlimit="10"/>
<path d="M69.3387 73.2205C71.9333 73.2205 74.0367 71.1124 74.0367 68.5119C74.0367 65.9114 71.9333 63.8033 69.3387 63.8033C66.744 63.8033 64.6406 65.9114 64.6406 68.5119C64.6406 71.1124 66.744 73.2205 69.3387 73.2205Z" stroke="#EA5297" stroke-miterlimit="10"/>
<path d="M43.3428 63.8033V61.9199" stroke="#EA5297" stroke-miterlimit="10"/>
<path d="M43.3426 40.3813V8.80282C43.343 8.10959 43.2069 7.42312 42.942 6.78277C42.6772 6.14242 42.2889 5.56079 41.7994 5.07126C41.3099 4.58172 40.7288 4.19391 40.0895 3.93006C39.4502 3.66621 38.7652 3.53152 38.0738 3.53372H33.3596V4.66261C33.3596 5.34991 33.0873 6.00905 32.6026 6.49505C32.1179 6.98104 31.4605 7.25407 30.7751 7.25407H16.7461C16.0607 7.25407 15.4033 6.98104 14.9186 6.49505C14.4339 6.00905 14.1616 5.34991 14.1616 4.66261V3.53372H9.4474C8.7572 3.53335 8.0737 3.66939 7.43597 3.93406C6.79825 4.19873 6.21881 4.58683 5.73077 5.07619C5.24272 5.56554 4.85564 6.14655 4.59168 6.78599C4.32772 7.42543 4.19204 8.11077 4.19241 8.80282V77.9824C4.19022 78.6756 4.32455 79.3624 4.58769 80.0035C4.85083 80.6445 5.2376 81.2272 5.72582 81.718C6.21405 82.2088 6.79412 82.5982 7.43276 82.8637C8.07139 83.1292 8.75603 83.2657 9.4474 83.2654H38.0682C38.7608 83.2676 39.4469 83.1324 40.0871 82.8677C40.7274 82.603 41.3091 82.2139 41.7988 81.7229C42.2885 81.2319 42.6765 80.6486 42.9405 80.0067C43.2045 79.3647 43.3393 78.6767 43.3371 77.9824V73.1192" stroke="#EA5297" stroke-miterlimit="10"/>
</svg>
