<svg width="76" height="84" viewBox="0 0 76 84" fill="none" xmlns="http://www.w3.org/2000/svg">
<path d="M1.09375 19.3785V40.5508L19.5473 51.1352L38.0008 40.5508V19.3785L19.5473 8.7923L1.09375 19.3785Z" stroke="#EA5297" stroke-miterlimit="10"/>
<path d="M30.5132 23.6738L19.5473 17.381L8.57959 23.6738" stroke="#EA5297" stroke-miterlimit="10"/>
<path d="M19.5474 51.1351V72.3056L38.0009 82.8918L56.4526 72.3056" stroke="#EA5297" stroke-miterlimit="10"/>
<path d="M38.001 19.3785V40.5508L56.4526 51.1352L74.9062 40.5508V19.3785L56.4526 8.7923" stroke="#EA5297" stroke-miterlimit="10"/>
<path d="M51.3805 12.0786C54.4336 12.0786 56.9085 9.61942 56.9085 6.58592C56.9085 3.55241 54.4336 1.09326 51.3805 1.09326C48.3275 1.09326 45.8525 3.55241 45.8525 6.58592C45.8525 9.61942 48.3275 12.0786 51.3805 12.0786Z" stroke="#EA5297" stroke-miterlimit="10"/>
<path d="M61.3835 75.3793C64.4365 75.3793 66.9115 72.9201 66.9115 69.8866C66.9115 66.8531 64.4365 64.394 61.3835 64.394C58.3304 64.394 55.8555 66.8531 55.8555 69.8866C55.8555 72.9201 58.3304 75.3793 61.3835 75.3793Z" stroke="#EA5297" stroke-miterlimit="10"/>
</svg>
