<svg width="96" height="97" viewBox="0 0 96 97" fill="none" xmlns="http://www.w3.org/2000/svg">
<path d="M95 21.1484V64.8537C95 67.0143 94.1404 69.0863 92.6104 70.614C91.0803 72.1417 89.0051 73 86.8413 73H9.1608C8.08921 73.0003 7.02807 72.7898 6.03797 72.3805C5.04787 71.9713 4.14822 71.3713 3.39039 70.6148C2.63256 69.8583 2.03141 68.9602 1.62126 67.9717C1.21112 66.9832 1 65.9237 1 64.8537V21.1484C0.999714 20.0783 1.21061 19.0186 1.62062 18.0298C2.03064 17.0411 2.63173 16.1427 3.38959 15.386C4.14745 14.6293 5.04719 14.0291 6.03744 13.6197C7.02768 13.2103 8.08902 12.9997 9.1608 13H61.5995" stroke="#EA5297" stroke-miterlimit="10"/>
<path d="M1 61H95" stroke="#EA5297" stroke-miterlimit="10"/>
<path d="M60 89H37L40.5929 73H56.4093L60 89Z" stroke="#EA5297" stroke-miterlimit="10"/>
<path d="M70 89H26V96H70V89Z" stroke="#EA5297" stroke-miterlimit="10"/>
<path d="M62 1H95V19.3349C95.0002 22.0166 94.3417 24.6561 93.0841 27.0147C91.8265 29.3732 90.0094 31.3765 87.7972 32.8432L78.5011 39L69.2028 32.8366C66.9915 31.3705 65.175 29.3683 63.9174 27.011C62.6598 24.6537 62.0009 22.0155 62 19.3349V1Z" stroke="#EA5297" stroke-miterlimit="10"/>
<path d="M72 18.329L76.4588 23L86 13" stroke="#EA5297" stroke-miterlimit="10"/>
<path d="M81 37.8451V61H16V20H62.1892" stroke="#EA5297" stroke-miterlimit="10"/>
</svg>
