<svg width="92" height="103" viewBox="0 0 92 103" fill="none" xmlns="http://www.w3.org/2000/svg">
<path d="M12.2574 58.8645L12.2306 29.6334C12.2293 28.1637 11.6433 26.7546 10.6015 25.716C9.55967 24.6775 8.1473 24.0944 6.67489 24.095V24.095C5.20207 24.095 3.78955 24.679 2.74811 25.7186C1.70666 26.7582 1.12158 28.1681 1.12158 29.6383V55.8765C1.12213 58.9569 1.88069 61.99 3.33068 64.7092L19.2916 94.6137V101.869H42.708V91.5309C42.7108 83.116 39.3844 75.0404 33.4525 69.0612L20.127 55.6455C19.7002 55.2155 19.1922 54.8741 18.6324 54.6412C18.0726 54.4082 17.4721 54.2883 16.8656 54.2883C16.2592 54.2883 15.6587 54.4082 15.099 54.6412C14.5392 54.8741 14.0312 55.2155 13.6043 55.6455V55.6455C13.1784 56.0728 12.8411 56.5798 12.6118 57.1374C12.3825 57.695 12.2655 58.2923 12.2678 58.8951C12.2701 59.4978 12.3914 60.0942 12.625 60.6501C12.8585 61.206 13.1995 61.7104 13.6287 62.1345L25.5634 73.8751" stroke="#EA5297" stroke-miterlimit="10"/>
<path d="M79.7402 58.8645L79.7694 29.6334C79.7706 28.1641 80.3563 26.7554 81.3976 25.7169C82.4389 24.6784 83.8507 24.095 85.3227 24.095V24.095C86.0521 24.0947 86.7745 24.2379 87.4486 24.5163C88.1226 24.7947 88.7351 25.203 89.251 25.7178C89.7669 26.2325 90.1762 26.8437 90.4554 27.5164C90.7347 28.1891 90.8784 28.9101 90.8784 29.6383V55.8765C90.8779 58.9569 90.1192 61.99 88.6693 64.7092L72.7084 94.6137V101.869H49.2896V91.5309C49.287 83.116 52.6134 75.0405 58.5451 69.0612L71.8681 55.6455C72.2952 55.2154 72.8033 54.874 73.3633 54.641C73.9233 54.408 74.524 54.2881 75.1307 54.2881C75.7373 54.2881 76.338 54.408 76.8979 54.641C77.4579 54.874 77.9662 55.2154 78.3932 55.6455V55.6455C78.8187 56.0731 79.1555 56.5803 79.3844 57.138C79.6134 57.6956 79.73 58.2929 79.7275 58.8956C79.725 59.4982 79.6035 60.0945 79.3699 60.6503C79.1364 61.2061 78.7954 61.7104 78.3664 62.1345L66.4317 73.8751" stroke="#EA5297" stroke-miterlimit="10"/>
<path d="M46.0176 1.17185C48.6276 3.77716 50.698 6.87013 52.1105 10.2741C53.523 13.6781 54.2501 17.3265 54.2501 21.011C54.2501 24.6955 53.523 28.3438 52.1105 31.7478C50.698 35.1518 48.6276 38.2448 46.0176 40.8501C40.7464 35.5884 37.7851 28.4521 37.7851 21.011C37.7851 13.5698 40.7464 6.43351 46.0176 1.17185Z" stroke="#EA5297" stroke-miterlimit="10"/>
<path d="M46.0181 40.8507V21.0117" stroke="#EA5297" stroke-miterlimit="10"/>
<path d="M48.001 54.3716C48.001 46.9305 50.9623 39.7941 56.2335 34.5325C61.5046 29.2708 68.6539 26.3149 76.1085 26.3149C76.1085 33.756 73.1472 40.8923 67.876 46.154C62.6048 51.4156 55.4555 54.3716 48.001 54.3716Z" stroke="#EA5297" stroke-miterlimit="10"/>
<path d="M47.999 54.3692L62.0528 40.3408" stroke="#EA5297" stroke-miterlimit="10"/>
<path d="M15.8911 26.3124C23.3457 26.3124 30.4949 29.2684 35.7661 34.53C41.0373 39.7917 43.9986 46.928 43.9986 54.3691C36.544 54.3691 29.3948 51.4131 24.1236 46.1515C18.8524 40.8898 15.8911 33.7535 15.8911 26.3124Z" stroke="#EA5297" stroke-miterlimit="10"/>
<path d="M43.9986 54.3692L29.9448 40.3408" stroke="#EA5297" stroke-miterlimit="10"/>
</svg>
