<svg width="95" height="93" viewBox="0 0 95 93" fill="none" xmlns="http://www.w3.org/2000/svg">
<path d="M94 80H1V92H94V80Z" stroke="#EA5297" stroke-miterlimit="10"/>
<path d="M80.6658 61.6905H56.9199V67.7238H80.6658V61.6905Z" stroke="#EA5297" stroke-miterlimit="10"/>
<path d="M30.5692 26.2108L23.5269 19.1142L38.4798 4.05237L68.5417 34.3333L53.5887 49.3952L37.3874 33.0758" stroke="#EA5297" stroke-miterlimit="10"/>
<path d="M71.3735 43.5756L65.3706 37.529L56.7615 46.2008L62.7644 52.2475L71.3735 43.5756Z" stroke="#EA5297" stroke-miterlimit="10"/>
<path d="M71.9494 67.7238H65.6362V79.7905H71.9494V67.7238Z" stroke="#EA5297" stroke-miterlimit="10"/>
<path d="M35.2573 79.7905H4.33496L13.9625 67.7238H25.6297L35.2573 79.7905Z" stroke="#EA5297" stroke-miterlimit="10"/>
<path d="M25.6298 67.7238C25.6298 67.7238 26.0695 41.8814 44.0386 25.602L38.1624 19.1143C38.1624 19.1143 15.5344 34.8335 13.9653 67.7238" stroke="#EA5297" stroke-miterlimit="10"/>
<path d="M35.3081 7.25093L29.3052 1.20428L20.6961 9.87614L26.699 15.9228L35.3081 7.25093Z" stroke="#EA5297" stroke-miterlimit="10"/>
<path d="M30.5696 26.2107L28.1919 23.8128L43.1448 8.75098L63.8774 29.6347L48.9245 44.6965L37.3878 33.0758" stroke="#EA5297" stroke-miterlimit="10"/>
</svg>
