<svg width="101" height="93" viewBox="0 0 101 93" fill="none" xmlns="http://www.w3.org/2000/svg">
<path d="M61.5 76H1V1H100V76H89.2476" stroke="#EA5297" stroke-miterlimit="10"/>
<path d="M59.7338 67H13V10H88V60" stroke="#EA5297" stroke-miterlimit="10"/>
<path d="M63 18H39V28H63V18Z" stroke="#EA5297" stroke-miterlimit="10"/>
<path d="M87 79V92L75.5 87.9635L64 92V79" stroke="#EA5297" stroke-miterlimit="10"/>
<path d="M32 38H69" stroke="#EA5297" stroke-miterlimit="10"/>
<path d="M32 48H69" stroke="#EA5297" stroke-miterlimit="10"/>
<path d="M75.5 84C84.0604 84 91 77.2843 91 69C91 60.7157 84.0604 54 75.5 54C66.9396 54 60 60.7157 60 69C60 77.2843 66.9396 84 75.5 84Z" stroke="#EA5297" stroke-miterlimit="10"/>
</svg>
