<svg width="307" height="51" viewBox="0 0 307 51" fill="none" xmlns="http://www.w3.org/2000/svg">
<path d="M45.3948 0.678467H50.4924L29.9488 50.0324H23.0415L0 0.678467H7.64651L26.4994 46.5065L45.3948 0.678467Z" fill="white"/>
<path d="M58.623 0.678467H63.5593V50.0324H58.623V0.678467Z" fill="white"/>
<path d="M114.001 5.18991H95.3862V50.0324H90.45V5.18991H71.835V0.678467H114.001V5.18991Z" fill="white"/>
<path d="M131.137 0.678467H138.053L159.132 50.0324H153.916L148.342 36.7785H120.849L115.275 50.0324H110.059L131.137 0.678467ZM146.43 32.267L134.587 4.22984L122.752 32.2925L146.43 32.267Z" fill="white"/>
<path d="M172.471 0.678467V45.521H203.355V50.0324H167.526V0.678467H172.471Z" fill="white"/>
<path d="M209.183 0.678467H214.102V50.0324H209.166L209.183 0.678467Z" fill="white"/>
<path d="M235.071 6.60047C234.105 7.2777 233.327 8.18841 232.808 9.24767C232.29 10.3069 232.048 11.4803 232.106 12.6582C232.064 13.9119 232.331 15.1566 232.883 16.2826C233.436 17.4087 234.257 18.3815 235.275 19.1153C237.393 20.6899 240.777 21.8992 245.428 22.7431C251.307 23.8759 255.538 25.51 258.121 27.6454C259.398 28.6973 260.413 30.0315 261.087 31.5427C261.761 33.0538 262.074 34.7008 262.003 36.3539C262.032 38.3565 261.585 40.3374 260.699 42.1335C259.813 43.9296 258.513 45.4896 256.906 46.6852C253.507 49.3869 249.276 50.7378 244.213 50.7378C239.727 50.8305 235.325 49.5109 231.63 46.9655C228.039 44.4507 225.442 40.7011 223.839 35.7167L228.138 33.0404C230.63 41.831 236.011 46.2264 244.281 46.2264C248.177 46.2264 251.279 45.3569 253.584 43.6181C254.706 42.7937 255.608 41.7063 256.211 40.4514C256.814 39.1966 257.099 37.8128 257.042 36.4218C257.079 35.2588 256.824 34.105 256.3 33.066C255.776 32.0271 255 31.1361 254.043 30.4746C252.043 29.0246 248.599 27.8719 243.711 27.0166C238.546 26.1727 234.493 24.5301 231.553 22.0889C230.145 20.9784 229.014 19.5564 228.249 17.9347C227.484 16.313 227.106 14.5359 227.144 12.7432C227.122 10.9786 227.509 9.23294 228.274 7.64264C229.039 6.05234 230.161 4.66049 231.553 3.57586C234.504 1.16862 238.33 -0.0208345 243.032 0.00748591C246.79 -0.090022 250.489 0.952595 253.643 2.99812C256.65 5.01804 258.896 7.98439 260.024 11.4263L255.657 13.8986C253.686 7.66815 249.361 4.55291 242.683 4.55291C239.993 4.41375 237.328 5.13058 235.071 6.60047Z" fill="white"/>
<path d="M280.058 6.60022C279.092 7.27745 278.314 8.18816 277.795 9.24743C277.277 10.3067 277.035 11.48 277.092 12.658C277.051 13.9124 277.32 15.1576 277.874 16.2837C278.428 17.4098 279.251 18.3822 280.27 19.115C282.388 20.6896 285.773 21.8989 290.423 22.7428C296.296 23.8757 300.528 25.5098 303.116 27.6451C304.391 28.6988 305.404 30.0335 306.076 31.5444C306.748 33.0553 307.061 34.7014 306.99 36.3536C307.019 38.3563 306.572 40.3371 305.686 42.1332C304.799 43.9293 303.499 45.4893 301.893 46.6849C298.494 49.3867 294.266 50.7376 289.208 50.7376C284.719 50.8303 280.315 49.5108 276.617 46.9653C273.02 44.4504 270.423 40.7008 268.826 35.7164L273.133 33.0401C275.62 41.8308 281.001 46.2261 289.276 46.2261C293.173 46.2261 296.274 45.3567 298.579 43.6178C299.701 42.7934 300.603 41.706 301.206 40.4512C301.809 39.1964 302.094 37.8126 302.037 36.4216C302.076 35.2583 301.821 34.104 301.297 33.0647C300.773 32.0255 299.996 31.1347 299.038 30.4743C297.038 29.0243 293.598 27.8717 288.715 27.0164C283.544 26.1725 279.488 24.5299 276.549 22.0886C275.141 20.9782 274.01 19.5562 273.245 17.9345C272.479 16.3128 272.101 14.5357 272.139 12.7429C272.118 10.9783 272.504 9.23269 273.269 7.64239C274.034 6.05209 275.157 4.66024 276.549 3.57561C279.5 1.16837 283.323 -0.0210844 288.018 0.00723597C291.775 -0.0973092 295.476 0.933065 298.639 2.96388C301.637 4.99043 303.878 7.95473 305.011 11.392L300.635 13.8644C298.664 7.63392 294.34 4.51868 287.662 4.51868C284.971 4.39138 282.309 5.12011 280.058 6.60022Z" fill="white"/>
</svg>
