<svg width="308" height="59" viewBox="0 0 308 59" fill="none" xmlns="http://www.w3.org/2000/svg">
<path d="M48.7952 1.02637H54.5773L31.2196 57.328H23.3577L0 1.02637H5.78208L27.2887 53.2982L48.7952 1.02637Z" fill="#020051"/>
<path d="M61.9824 1.02637H67.5818V57.328H61.9824V1.02637Z" fill="#020051"/>
<path d="M123.942 6.178H102.71V57.328H97.0879V6.178H75.9014V1.02637H123.897L123.942 6.178Z" fill="#020051"/>
<path d="M141.38 1.02637H149.242L173.24 57.328H167.297L160.966 42.2165H129.655L123.302 57.328H117.359L141.38 1.02637ZM158.795 37.0649L145.311 5.01031L131.826 37.0649H158.795Z" fill="#020051"/>
<path d="M186.405 1.02672V52.1309H221.556V57.2825H180.76V0.980957L186.405 1.02672Z" fill="#020051"/>
<path d="M238.193 28.9372L256.477 1.02679H262.808L241.004 33.8141V57.3055H235.382V33.8141L213.556 1.00391H219.887L238.193 28.9372Z" fill="#020051"/>
<path d="M276.887 7.78114C275.8 8.55479 274.923 9.58841 274.336 10.788C273.749 11.9877 273.471 13.3152 273.527 14.65C273.475 16.082 273.777 17.5048 274.407 18.7913C275.037 20.0778 275.975 21.1879 277.138 22.0225C280.645 24.2329 284.592 25.6474 288.703 26.1667C293.895 26.8421 298.849 28.7582 303.147 31.7534C304.6 32.9542 305.756 34.4768 306.521 36.2013C307.287 37.9258 307.642 39.8049 307.558 41.6903C307.595 43.9708 307.09 46.2273 306.085 48.2736C305.079 50.32 303.602 52.0973 301.776 53.4589C297.641 56.625 292.532 58.2447 287.332 58.0381C282.221 58.1522 277.206 56.6457 273.002 53.7337C268.695 50.5759 265.572 46.0605 264.134 40.9118L269.025 37.8667C271.859 47.8799 277.953 52.8865 287.309 52.8865C291.074 53.0899 294.802 52.0438 297.913 49.91C299.19 48.9719 300.216 47.7334 300.902 46.3039C301.587 44.8744 301.911 43.2977 301.844 41.7132C301.899 40.3737 301.616 39.042 301.021 37.8413C300.426 36.6407 299.538 35.6098 298.439 34.8443C294.84 32.7067 290.827 31.3641 286.669 30.9062C281.634 30.2956 276.854 28.3513 272.819 25.2738C271.224 24.0085 269.943 22.3915 269.075 20.5487C268.207 18.706 267.775 16.6873 267.813 14.65C267.791 12.6414 268.231 10.6548 269.099 8.84409C269.967 7.03342 271.24 5.44748 272.819 4.20935C276.53 1.29681 281.159 -0.189423 285.869 0.0193489C290.149 -0.0853396 294.362 1.1034 297.959 3.43085C301.373 5.74698 303.928 9.12738 305.227 13.0472L300.245 15.8635C299.444 12.6198 297.521 9.76569 294.817 7.80807C292.114 5.85045 288.806 4.9161 285.48 5.17098C282.414 5.11997 279.409 6.03278 276.887 7.78114Z" fill="#020051"/>
</svg>
