<svg width="169" height="28" viewBox="0 0 169 28" fill="none" xmlns="http://www.w3.org/2000/svg">
<path d="M24.9893 0.373535H27.7955L16.4865 27.5423H12.6841L0 0.373535H4.20932L14.5876 25.6014L24.9893 0.373535Z" fill="white"/>
<path d="M32.2715 0.373535H34.9888V27.5423H32.2715V0.373535Z" fill="white"/>
<path d="M62.7565 2.85703H52.5091V27.5423H49.7918V2.85703H39.5444V0.373535H62.7565V2.85703Z" fill="white"/>
<path d="M72.1896 0.373535H75.9967L87.6004 27.5423H84.7287L81.6606 20.2462H66.5258L63.4576 27.5423H60.5859L72.1896 0.373535ZM80.6083 17.7627L74.0885 2.32853L67.5734 17.7767L80.6083 17.7627Z" fill="white"/>
<path d="M94.9432 0.373535V25.0588H111.944V27.5423H92.2212V0.373535H94.9432Z" fill="white"/>
<path d="M115.153 0.373535H117.861V27.5423H115.144L115.153 0.373535Z" fill="white"/>
<path d="M129.404 3.6333C128.872 4.00611 128.444 4.50744 128.158 5.09056C127.873 5.67367 127.74 6.31957 127.771 6.96802C127.748 7.65814 127.895 8.34334 128.2 8.96321C128.504 9.58309 128.956 10.1186 129.516 10.5225C130.682 11.3894 132.545 12.0551 135.105 12.5196C138.342 13.1432 140.671 14.0428 142.092 15.2183C142.795 15.7974 143.354 16.5318 143.725 17.3637C144.096 18.1956 144.269 19.1022 144.23 20.0122C144.246 21.1146 144 22.2051 143.512 23.1938C143.024 24.1825 142.308 25.0413 141.424 25.6995C139.553 27.1868 137.224 27.9304 134.436 27.9304C131.967 27.9814 129.544 27.255 127.51 25.8538C125.533 24.4694 124.103 22.4053 123.221 19.6614L125.587 18.1882C126.959 23.0273 129.921 25.4469 134.474 25.4469C136.619 25.4469 138.326 24.9683 139.595 24.0111C140.213 23.5573 140.709 22.9586 141.041 22.2679C141.373 21.5771 141.53 20.8154 141.498 20.0496C141.519 19.4094 141.379 18.7743 141.09 18.2023C140.802 17.6303 140.374 17.1399 139.848 16.7757C138.747 15.9775 136.851 15.343 134.16 14.8722C131.317 14.4076 129.086 13.5034 127.467 12.1595C126.692 11.5482 126.07 10.7654 125.649 9.87268C125.227 8.97996 125.019 8.00167 125.04 7.01479C125.028 6.04341 125.241 5.08245 125.662 4.207C126.083 3.33156 126.701 2.56536 127.467 1.96828C129.092 0.64313 131.198 -0.0116528 133.786 0.00393721C135.855 -0.0497398 137.891 0.524209 139.628 1.65025C141.283 2.76219 142.519 4.39513 143.14 6.28985L140.736 7.65086C139.651 4.22105 137.27 2.50614 133.594 2.50614C132.113 2.42954 130.646 2.82414 129.404 3.6333Z" fill="white"/>
<path d="M154.168 3.63335C153.637 4.00616 153.208 4.50749 152.923 5.0906C152.638 5.67372 152.504 6.31961 152.536 6.96806C152.514 7.6586 152.661 8.34406 152.966 8.96397C153.271 9.58388 153.724 10.1192 154.285 10.5226C155.451 11.3894 157.314 12.0551 159.874 12.5197C163.108 13.1433 165.437 14.0428 166.862 15.2183C167.563 15.7984 168.121 16.5331 168.491 17.3648C168.861 18.1966 169.033 19.1028 168.995 20.0123C169.01 21.1147 168.764 22.2051 168.276 23.1939C167.789 24.1826 167.073 25.0414 166.188 25.6995C164.317 27.1868 161.99 27.9305 159.206 27.9305C156.735 27.9815 154.31 27.2551 152.274 25.8539C150.294 24.4695 148.865 22.4053 147.985 19.6615L150.357 18.1882C151.725 23.0274 154.688 25.447 159.243 25.447C161.388 25.447 163.095 24.9683 164.364 24.0111C164.982 23.5573 165.478 22.9587 165.81 22.2679C166.142 21.5772 166.299 20.8154 166.268 20.0497C166.289 19.4093 166.149 18.7739 165.861 18.2018C165.572 17.6297 165.144 17.1393 164.617 16.7758C163.516 15.9776 161.622 15.343 158.934 14.8722C156.088 14.4076 153.855 13.5034 152.237 12.1596C151.462 11.5483 150.839 10.7655 150.418 9.87273C149.997 8.98 149.788 8.00171 149.809 7.01483C149.798 6.04346 150.01 5.08249 150.432 4.20705C150.853 3.33161 151.47 2.56541 152.237 1.96833C153.861 0.643176 155.966 -0.0116067 158.551 0.00398332C160.619 -0.0535676 162.656 0.513642 164.397 1.63159C166.048 2.74718 167.281 4.37899 167.905 6.27119L165.496 7.6322C164.411 4.20238 162.03 2.48748 158.354 2.48748C156.873 2.4174 155.407 2.81856 154.168 3.63335Z" fill="white"/>
</svg>
